<svg width="192" height="192" viewBox="0 0 192 192" fill="none" xmlns="http://www.w3.org/2000/svg">
<path d="M96 21C76.1088 21 57.0322 28.9018 42.967 42.967C28.9018 57.0322 21 76.1088 21 96C21 115.891 28.9018 134.968 42.967 149.033C57.0322 163.098 76.1088 171 96 171C115.891 171 134.968 163.098 149.033 149.033C163.098 134.968 171 115.891 171 96C171 76.1088 163.098 57.0322 149.033 42.967C134.968 28.9018 115.891 21 96 21ZM115.769 157.144H115.187C114.751 157.168 114.314 157.104 113.903 156.953C113.493 156.803 113.117 156.57 112.8 156.269C112.507 155.959 112.278 155.594 112.128 155.194C111.978 154.795 111.909 154.37 111.925 153.944V145.156C111.963 142.237 111.987 139.281 111.987 136.306C111.977 134.131 111.66 131.968 111.044 129.881C110.46 127.772 109.285 125.874 107.656 124.412C112.012 123.992 116.295 123.002 120.394 121.469C123.851 120.154 126.979 118.097 129.556 115.444C132.1 112.775 133.994 109.55 135.087 106.031C136.418 101.722 137.051 97.2278 136.963 92.7188C136.987 89.5705 136.436 86.4442 135.338 83.4937C134.221 80.52 132.533 77.7937 130.369 75.4688C130.836 74.2962 131.175 73.0766 131.381 71.8313C131.587 70.5813 131.694 69.3187 131.694 68.0562C131.694 66.4312 131.506 64.8063 131.131 63.225C130.791 61.6032 130.329 60.0091 129.75 58.4563C129.529 58.37 129.293 58.3276 129.056 58.3313H128.369C126.931 58.3438 125.519 58.5813 124.156 59.025C122.655 59.4631 121.187 60.0061 119.763 60.65C118.346 61.2851 116.966 62.0008 115.631 62.7937C114.287 63.5875 113.1 64.35 112.05 65.0562C101.536 62.1258 90.4205 62.1258 79.9063 65.0562C78.7337 64.2723 77.5416 63.5179 76.3312 62.7937C74.9773 61.9942 73.5745 61.2803 72.1312 60.6562C70.7104 59.991 69.2365 59.4453 67.725 59.025C66.3894 58.5838 64.994 58.3498 63.5875 58.3313H62.9C62.6649 58.3279 62.4314 58.3704 62.2125 58.4563C61.6254 60.0113 61.1451 61.6046 60.775 63.225C60.4375 64.8125 60.275 66.4312 60.2687 68.0562C60.2687 69.3187 60.375 70.5813 60.5875 71.8313C60.7938 73.075 61.125 74.2938 61.5875 75.4688C59.4287 77.7968 57.747 80.5253 56.6375 83.5C55.533 86.4494 54.976 89.5756 54.9938 92.725C54.9063 97.2099 55.5221 101.681 56.8187 105.975C57.95 109.494 59.8375 112.725 62.3437 115.45C64.9375 118.088 68.0625 120.138 71.5063 121.475C75.5875 123.038 79.8625 124.038 84.2125 124.45C82.9979 125.551 82.0344 126.9 81.3875 128.406C80.7721 129.896 80.3519 131.459 80.1375 133.056C77.8443 134.154 75.3363 134.731 72.7937 134.744C70.4326 134.838 68.1022 134.182 66.1375 132.869C64.2527 131.472 62.6566 129.723 61.4375 127.719C60.8919 126.877 60.2817 126.079 59.6125 125.331C58.9065 124.545 58.1281 123.828 57.2875 123.188C56.459 122.568 55.5508 122.064 54.5875 121.688C53.6397 121.272 52.6162 121.057 51.5813 121.056C51.3313 121.063 51.0812 121.087 50.8312 121.119C50.4898 121.118 50.1496 121.16 49.8188 121.244C49.5279 121.32 49.2529 121.447 49.0062 121.619C48.8941 121.681 48.8004 121.771 48.7345 121.881C48.6686 121.99 48.633 122.116 48.6313 122.244C48.6575 122.545 48.7495 122.836 48.9007 123.097C49.0519 123.359 49.2586 123.584 49.5062 123.756C50.0875 124.219 50.5688 124.575 50.9563 124.825L51.1437 124.956C51.975 125.6 52.775 126.294 53.5312 127.037C54.2312 127.65 54.8625 128.344 55.4063 129.1C55.9688 129.844 56.4563 130.638 56.85 131.481C57.3063 132.319 57.7875 133.281 58.2938 134.375C59.4688 137.337 61.5562 139.844 64.2563 141.531C67.0875 143.05 70.2625 143.806 73.4813 143.725C74.5688 143.725 75.6625 143.663 76.7437 143.538C77.8187 143.363 78.8875 143.181 79.9625 142.969V153.862C79.982 154.302 79.9085 154.74 79.747 155.149C79.5854 155.558 79.3394 155.928 79.025 156.235C78.7106 156.543 78.3348 156.78 77.9224 156.933C77.5099 157.085 77.0699 157.148 76.6313 157.119H76.2437C61.669 152.41 49.2542 142.653 41.2348 129.604C33.2154 116.555 30.1185 101.071 32.5018 85.9411C34.885 70.8113 42.5917 57.0294 54.2342 47.0773C65.8767 37.1251 80.6898 31.6567 96.0063 31.6567C111.323 31.6567 126.136 37.1251 137.778 47.0773C149.421 57.0294 157.128 70.8113 159.511 85.9411C161.894 101.071 158.797 116.555 150.778 129.604C142.758 142.653 130.344 152.41 115.769 157.119V157.144Z" fill="white"/>
</svg>
