<svg width="192" height="192" viewBox="0 0 192 192" fill="none" xmlns="http://www.w3.org/2000/svg">
<path d="M156 36H36C27.75 36 21.075 42.75 21.075 51L21 141C21 149.25 27.75 156 36 156H156C164.25 156 171 149.25 171 141V51C171 42.75 164.25 36 156 36ZM153 67.875L99.975 101.025C97.575 102.525 94.425 102.525 92.025 101.025L39 67.875C38.248 67.4528 37.5894 66.8825 37.0642 66.1984C36.5389 65.5143 36.158 64.7308 35.9443 63.8953C35.7307 63.0597 35.6888 62.1895 35.8212 61.3373C35.9536 60.4851 36.2575 59.6686 36.7146 58.9373C37.1717 58.2059 37.7724 57.5749 38.4804 57.0825C39.1885 56.59 39.989 56.2463 40.8337 56.0722C41.6784 55.8981 42.5496 55.8973 43.3947 56.0696C44.2397 56.242 45.041 56.584 45.75 57.075L96 88.5L146.25 57.075C146.959 56.584 147.76 56.242 148.605 56.0696C149.45 55.8973 150.322 55.8981 151.166 56.0722C152.011 56.2463 152.812 56.59 153.52 57.0825C154.228 57.5749 154.828 58.2059 155.285 58.9373C155.742 59.6686 156.046 60.4851 156.179 61.3373C156.311 62.1895 156.269 63.0597 156.056 63.8953C155.842 64.7308 155.461 65.5143 154.936 66.1984C154.411 66.8825 153.752 67.4528 153 67.875Z" fill="white"/>
</svg>
