<svg width="192" height="192" viewBox="0 0 192 192" fill="none" xmlns="http://www.w3.org/2000/svg">
<path d="M102.262 92.2176L127.117 67.3923L46.8368 22.3258C41.5161 19.4546 36.5317 19.0516 32.1609 22.1915L102.262 92.2176ZM131.353 121.282L157.191 106.767C162.235 103.946 165 99.9497 165 95.5169C165 91.0926 162.235 87.088 157.2 84.2671L133.808 71.1451L107.473 97.4395L131.353 121.282ZM27.8405 28.295C27.3026 29.9488 27 31.7958 27 33.8191V157.274C27 160.472 27.7061 163.226 28.9837 165.417L97.0423 97.4311L27.8405 28.295ZM102.262 102.636L34.5817 170.244C35.8761 170.74 37.2714 171 38.7424 171C41.3648 171 44.0966 170.228 46.8788 168.683L124.671 125.052L102.262 102.636Z" fill="white"/>
</svg>
