<svg width="192" height="192" viewBox="0 0 192 192" fill="none" xmlns="http://www.w3.org/2000/svg">
<path fill-rule="evenodd" clip-rule="evenodd" d="M24.9 64.6725C21 71.7825 21 80.3625 21 97.53V108.938C21 138.195 21 152.82 29.79 161.91C38.5725 171 52.7175 171 81 171H111C139.283 171 153.427 171 162.21 161.91C171 152.82 171 138.188 171 108.938V97.5225C171 80.3625 171 71.7825 167.108 64.6725C163.223 57.5699 156.127 53.1634 141.959 44.3653L141.87 44.31L126.87 35.0025L126.862 34.9976C111.822 25.6634 104.309 21 96 21C87.69 21 80.1675 25.665 65.13 35.0025L50.13 44.31L50.0412 44.3651C35.8729 53.1634 28.7769 57.5698 24.9 64.6725ZM92.0225 144.977C90.9676 143.923 90.375 142.492 90.375 141V118.5C90.375 117.008 90.9676 115.577 92.0225 114.523C93.0774 113.468 94.5082 112.875 96 112.875C97.4918 112.875 98.9226 113.468 99.9775 114.523C101.032 115.577 101.625 117.008 101.625 118.5V141C101.625 142.492 101.032 143.923 99.9775 144.977C98.9226 146.032 97.4918 146.625 96 146.625C94.5082 146.625 93.0774 146.032 92.0225 144.977Z" fill="white"/>
</svg>
