<svg width="192" height="192" viewBox="0 0 192 192" fill="none" xmlns="http://www.w3.org/2000/svg">
<path d="M75.095 150.136C74.8401 151.739 74.0217 153.199 72.7869 154.252C71.552 155.306 69.9818 155.884 68.3586 155.884H42.2314C40.7118 155.887 39.2098 155.558 37.8302 154.921C36.4505 154.284 35.2264 153.354 34.243 152.195C33.2597 151.036 32.5408 149.677 32.1365 148.213C31.7322 146.748 31.6521 145.212 31.9019 143.713L49.5609 31.8546C50.0463 28.8325 51.5903 26.0814 53.9173 24.093C56.2442 22.1045 59.2024 21.0083 62.2632 21.0001H104.631C122.086 21.0001 134.686 25.2273 142.077 33.5659C145.593 37.6184 148.095 42.4495 149.375 47.66C150.656 52.8705 150.678 58.3109 149.44 63.5317C149.297 64.4522 149.147 65.3727 148.929 66.3817C143.317 95.1407 124.008 110.407 93.1154 110.407H81.4018L75.095 150.136Z" fill="white"/>
<path d="M153.879 62.6181C152.748 61.3531 151.504 60.1938 150.163 59.1544C150.018 60.6278 149.777 62.09 149.44 63.5317C149.297 64.4522 149.147 65.3726 148.929 66.3817C143.317 95.1407 124.008 110.407 93.1154 110.407H81.4018L75.095 150.136C74.8401 151.739 74.0217 153.199 72.7869 154.252C71.5521 155.306 69.9819 155.884 68.3586 155.884H60.4018L59.8428 159.429C59.6161 160.857 59.7016 162.317 60.0935 163.708C60.4853 165.1 61.1741 166.39 62.1125 167.49C63.0508 168.589 64.2164 169.473 65.529 170.079C66.8415 170.685 68.2698 170.999 69.7155 171H91.7654C94.6218 171.024 97.3933 170.029 99.5817 168.193C101.77 166.357 103.232 163.801 103.704 160.984L108.068 133.5L108.149 133.125H110.181C137.679 133.125 154.847 119.536 159.858 93.8384C161.386 88.5319 161.641 82.9399 160.602 77.5164C159.563 72.093 157.26 66.9842 153.879 62.6181Z" fill="#DBDBDB"/>
</svg>
