<svg width="40" height="40" viewBox="0 0 40 40" fill="none" xmlns="http://www.w3.org/2000/svg">
<path d="M40 20C40 8.95431 31.0457 0 20 0C8.95431 0 0 8.95431 0 20C0 31.0457 8.95431 40 20 40C31.0457 40 40 31.0457 40 20Z" fill="#4C9AE8"/>
<path d="M15.7388 16.6463C16.7457 16.6463 17.5619 15.8301 17.5619 14.8232C17.5619 13.8163 16.7457 13 15.7388 13C14.7319 13 13.9156 13.8163 13.9156 14.8232C13.9156 15.8301 14.7319 16.6463 15.7388 16.6463Z" fill="white"/>
<path d="M24.2468 16.6463C25.2537 16.6463 26.0699 15.8301 26.0699 14.8232C26.0699 13.8163 25.2537 13 24.2468 13C23.2399 13 22.4236 13.8163 22.4236 14.8232C22.4236 15.8301 23.2399 16.6463 24.2468 16.6463Z" fill="white"/>
<path d="M10.0961 26.8594C9.9003 26.8591 9.70812 26.8065 9.53951 26.7069C9.3709 26.6074 9.23199 26.4645 9.13719 26.2932C9.04239 26.1219 8.99516 25.9283 9.00039 25.7325C9.00562 25.5368 9.06313 25.346 9.16694 25.18L11.9218 20.7742C12.0766 20.5285 12.3225 20.3541 12.6056 20.2893C12.8887 20.2246 13.186 20.2747 13.4322 20.4288C13.6784 20.5828 13.8535 20.8281 13.9191 21.1111C13.9848 21.394 13.9355 21.6914 13.7823 21.9381L11.0274 26.3438C10.9288 26.5018 10.7915 26.6321 10.6286 26.7223C10.4656 26.8125 10.2824 26.8597 10.0961 26.8594Z" fill="white"/>
<path d="M19.9826 27.6192C18.3134 27.6239 16.6654 27.2456 15.1654 26.5134C13.6653 25.7812 12.3533 24.7146 11.3302 23.3956L13.0599 22.0442C13.8807 23.0965 14.9305 23.9479 16.1297 24.5336C17.3288 25.1193 18.6457 25.424 19.9803 25.4244C21.3148 25.4248 22.6319 25.121 23.8314 24.536C25.0309 23.951 26.0813 23.1003 26.9027 22.0485L28.6313 23.3999C27.6082 24.7175 26.2965 25.783 24.7972 26.5145C23.2979 27.2459 21.6509 27.6238 19.9826 27.6192Z" fill="white"/>
<path d="M29.8794 26.8593C29.6931 26.8596 29.5099 26.8124 29.3469 26.7222C29.184 26.632 29.0467 26.5018 28.948 26.3438L26.1932 21.938C26.0399 21.6913 25.9907 21.3939 26.0564 21.111C26.122 20.8281 26.2971 20.5827 26.5433 20.4287C26.7895 20.2747 27.0868 20.2245 27.3699 20.2893C27.653 20.354 27.8989 20.5284 28.0537 20.7741L30.8086 25.18C30.9124 25.346 30.9699 25.5368 30.9751 25.7325C30.9804 25.9282 30.9331 26.1218 30.8383 26.2931C30.7435 26.4645 30.6046 26.6073 30.436 26.7069C30.2674 26.8064 30.0752 26.8591 29.8794 26.8593H29.8794Z" fill="white"/>
</svg>
