<svg width="192" height="192" viewBox="0 0 192 192" fill="none" xmlns="http://www.w3.org/2000/svg">
<path d="M158.217 34.1036C158.217 34.1036 172.092 28.6929 170.931 41.8322C170.549 47.2429 167.081 66.1821 164.381 86.6641L155.131 147.342C155.131 147.342 154.36 156.232 147.421 157.778C140.485 159.321 130.078 152.367 128.15 150.821C126.607 149.66 99.2428 132.267 89.6072 123.768C86.9072 121.446 83.8216 116.81 89.9929 111.4L130.46 72.7499C135.085 68.1142 139.71 57.2928 120.439 70.432L66.4754 107.146C66.4754 107.146 60.3076 111.014 48.7471 107.535L23.6903 99.8033C23.6903 99.8033 14.4404 94.0069 30.2438 88.2105C68.7897 70.0463 116.2 51.4964 158.21 34.1036H158.217Z" fill="white"/>
</svg>
