<svg width="48" height="48" viewBox="0 0 48 48" fill="none" xmlns="http://www.w3.org/2000/svg">
<g clip-path="url(#clip0_3708_1304)" filter="url(#filter0_dd_3708_1304)">
<rect x="4" width="40" height="40" rx="20" fill="#111111"/>
<path d="M33.9684 15.276C33.2785 15.276 32.5953 15.1402 31.9579 14.8762C31.3206 14.6121 30.7414 14.2252 30.2536 13.7373C29.7657 13.2495 29.3787 12.6704 29.1147 12.033C28.8507 11.3956 28.7148 10.7124 28.7148 10.0225H24.9615V24.7199C24.9608 25.39 24.7492 26.0429 24.3567 26.586C23.9642 27.1291 23.4107 27.5349 22.7747 27.7459C22.1387 27.9569 21.4525 27.9623 20.8132 27.7615C20.1739 27.5607 19.614 27.1637 19.213 26.6269C18.8119 26.0901 18.5899 25.4407 18.5785 24.7707C18.5671 24.1008 18.7669 23.4442 19.1495 22.8941C19.5321 22.344 20.0782 21.9282 20.7103 21.7058C21.3424 21.4833 22.0284 21.4655 22.6712 21.6547V18.0062C21.3052 17.822 19.9154 18.059 18.6875 18.6854C17.4596 19.3119 16.4521 20.298 15.7994 21.5121C15.1468 22.7263 14.88 24.1106 15.0349 25.4803C15.1897 26.8501 15.7587 28.1399 16.6659 29.1778C17.5731 30.2156 18.7753 30.9519 20.1121 31.2885C21.4488 31.625 22.8564 31.5458 24.1469 31.0613C25.4374 30.5768 26.5493 29.7102 27.3343 28.5771C28.1193 27.444 28.5399 26.0984 28.54 24.7199L28.6489 17.2908C30.191 18.4229 32.0549 19.0321 33.968 19.0292L33.9684 15.276Z" fill="url(#paint0_linear_3708_1304)"/>
<path d="M32.9762 14.2536C31.5829 14.2536 30.2467 13.7001 29.2615 12.7148C28.2763 11.7296 27.7228 10.3933 27.7229 9.00003H23.9695V23.6974C23.9688 24.3675 23.7572 25.0204 23.3648 25.5635C22.9723 26.1066 22.4188 26.5124 21.7828 26.7234C21.1468 26.9344 20.4605 26.9399 19.8212 26.7391C19.182 26.5383 18.6221 26.1413 18.221 25.6045C17.8199 25.0677 17.5979 24.4183 17.5865 23.7483C17.5751 23.0784 17.7749 22.4218 18.1575 21.8717C18.5401 21.3215 19.0862 20.9058 19.7183 20.6834C20.3504 20.4609 21.0364 20.4431 21.6792 20.6323V16.9837C20.3132 16.7995 18.9234 17.0365 17.6955 17.6629C16.4677 18.2894 15.4601 19.2755 14.8074 20.4896C14.1548 21.7038 13.888 23.0881 14.0429 24.4578C14.1977 25.8275 14.7667 27.1174 15.6739 28.1553C16.5811 29.1931 17.7834 29.9294 19.1201 30.266C20.4568 30.6025 21.8644 30.5233 23.1549 30.0388C24.4454 29.5543 25.5574 28.6877 26.3424 27.5546C27.1273 26.4215 27.5479 25.0759 27.548 23.6974L27.6575 16.2684C29.1997 17.4004 31.0635 18.0096 32.9766 18.0067L32.9762 14.2536Z" fill="url(#paint1_linear_3708_1304)"/>
<path d="M32.9762 15.1821C31.6776 14.9322 30.521 14.2018 29.7372 13.1366C28.7467 12.3613 28.0672 11.2563 27.8225 10.0225H24.9617V24.7199C24.9617 25.4175 24.7334 26.0958 24.3117 26.6515C23.89 27.2071 23.298 27.6095 22.6262 27.7972C21.9544 27.9849 21.2396 27.9476 20.591 27.6911C19.9424 27.4345 19.3955 26.9727 19.0339 26.3763C18.3908 25.9577 17.9198 25.3217 17.7069 24.5845C17.4941 23.8473 17.5536 23.0581 17.8745 22.3612C18.1955 21.6642 18.7566 21.1061 19.4551 20.7886C20.1537 20.4712 20.9432 20.4157 21.6793 20.6323V17.9474C20.4167 17.9637 19.1838 18.3325 18.1197 19.0124C17.0557 19.6922 16.2028 20.6559 15.6574 21.7948C15.1121 22.9336 14.8959 24.2022 15.0333 25.4574C15.1707 26.7126 15.6562 27.9044 16.435 28.8983C17.4238 29.7233 18.6273 30.2494 19.9044 30.4148C21.1815 30.5803 22.4793 30.3782 23.6457 29.8324C24.812 29.2865 25.7986 28.4195 26.4898 27.3329C27.181 26.2463 27.5481 24.9852 27.548 23.6974L27.6575 16.2684C29.1997 17.4005 31.0635 18.0096 32.9766 18.0067L32.9762 15.1821Z" fill="url(#paint2_linear_3708_1304)"/>
</g>
<defs>
<filter id="filter0_dd_3708_1304" x="0" y="0" width="48" height="48" filterUnits="userSpaceOnUse" color-interpolation-filters="sRGB">
<feFlood flood-opacity="0" result="BackgroundImageFix"/>
<feColorMatrix in="SourceAlpha" type="matrix" values="0 0 0 0 0 0 0 0 0 0 0 0 0 0 0 0 0 0 127 0" result="hardAlpha"/>
<feOffset dy="4"/>
<feGaussianBlur stdDeviation="2"/>
<feComposite in2="hardAlpha" operator="out"/>
<feColorMatrix type="matrix" values="0 0 0 0 0 0 0 0 0 0 0 0 0 0 0 0 0 0 0.25 0"/>
<feBlend mode="normal" in2="BackgroundImageFix" result="effect1_dropShadow_3708_1304"/>
<feColorMatrix in="SourceAlpha" type="matrix" values="0 0 0 0 0 0 0 0 0 0 0 0 0 0 0 0 0 0 127 0" result="hardAlpha"/>
<feOffset dy="4"/>
<feGaussianBlur stdDeviation="2"/>
<feComposite in2="hardAlpha" operator="out"/>
<feColorMatrix type="matrix" values="0 0 0 0 0 0 0 0 0 0 0 0 0 0 0 0 0 0 0.25 0"/>
<feBlend mode="normal" in2="effect1_dropShadow_3708_1304" result="effect2_dropShadow_3708_1304"/>
<feBlend mode="normal" in="SourceGraphic" in2="effect2_dropShadow_3708_1304" result="shape"/>
</filter>
<linearGradient id="paint0_linear_3708_1304" x1="16.4962" y1="29.0288" x2="32.1087" y2="13.4163" gradientUnits="userSpaceOnUse">
<stop stop-color="#B5053C"/>
<stop offset="0.233" stop-color="#C90441"/>
<stop offset="0.737" stop-color="#F0014B"/>
<stop offset="1" stop-color="#FF004F"/>
</linearGradient>
<linearGradient id="paint1_linear_3708_1304" x1="15.2716" y1="28.2387" x2="31.7173" y2="11.793" gradientUnits="userSpaceOnUse">
<stop stop-color="#00B2C9"/>
<stop offset="0.283" stop-color="#00C8D4"/>
<stop offset="0.741" stop-color="#00E6E4"/>
<stop offset="1" stop-color="#00F1EA"/>
</linearGradient>
<linearGradient id="paint2_linear_3708_1304" x1="6.05798" y1="38.4597" x2="42.4606" y2="2.05711" gradientUnits="userSpaceOnUse">
<stop stop-color="#DDE3E4"/>
<stop offset="1" stop-color="#FCF7F7"/>
</linearGradient>
<clipPath id="clip0_3708_1304">
<rect width="40" height="40" fill="white" transform="translate(4)"/>
</clipPath>
</defs>
</svg>
