<svg width="192" height="192" viewBox="0 0 192 192" fill="none" xmlns="http://www.w3.org/2000/svg">
<path d="M68.8623 155C123.959 155 154.099 109.206 154.099 69.5626C154.099 68.2811 154.099 66.9813 154.044 65.6998C159.912 61.4388 164.976 56.1634 169 50.1208C163.519 52.5451 157.71 54.1429 151.763 54.8623C158.027 51.1061 162.719 45.196 164.967 38.2306C159.081 41.7283 152.639 44.1837 145.923 45.4892C141.408 40.6656 135.433 37.4701 128.924 36.3977C122.415 35.3253 115.735 36.4358 109.919 39.5573C104.103 42.6787 99.4749 47.6369 96.7524 53.6637C94.0298 59.6906 93.3645 66.4498 94.8594 72.8944C82.9489 72.2953 71.2969 69.1916 60.6593 63.7844C50.0216 58.3773 40.6357 50.7876 33.1105 41.5075C29.2902 48.1262 28.1244 55.9552 29.8496 63.4048C31.5749 70.8544 36.062 77.3661 42.3997 81.6175C37.6506 81.4557 33.0058 80.1764 28.84 77.883V78.2949C28.8482 85.2284 31.2427 91.9464 35.6187 97.3133C39.9948 102.68 46.0839 106.367 52.857 107.75C50.2861 108.461 47.6305 108.815 44.9639 108.803C43.084 108.809 41.2078 108.634 39.3611 108.281C41.2754 114.25 45.0029 119.468 50.0214 123.206C55.0399 126.943 61.0981 129.012 67.3475 129.123C56.7311 137.488 43.617 142.024 30.1175 142.002C27.7388 142.012 25.3618 141.875 23 141.59C36.7013 150.353 52.6133 155.005 68.8623 155Z" fill="white"/>
</svg>
